<?xml version="1.0" standalone="no"?>
<!DOCTYPE svg PUBLIC "-//W3C//DTD SVG 20010904//EN"
 "http://www.w3.org/TR/2001/REC-SVG-20010904/DTD/svg10.dtd">
<svg version="1.0" xmlns="http://www.w3.org/2000/svg"
 width="1200.000000pt" height="600.000000pt" viewBox="0 0 1200.000000 600.000000"
 preserveAspectRatio="xMidYMid meet">

<g transform="translate(0.000000,600.000000) scale(0.100000,-0.100000)"
fill="#000000" stroke="none">
<path d="M1550 4138 c0 -388 -4 -711 -10 -763 -20 -179 -85 -250 -220 -243
-119 6 -172 74 -191 244 -6 54 -11 100 -12 100 -2 1 -628 -84 -633 -86 -6 -2
23 -167 41 -233 60 -213 185 -367 363 -449 193 -88 555 -110 781 -47 227 62
416 228 480 422 60 178 71 360 71 1130 l0 597 -335 0 -335 0 0 -672z"/>
<path d="M2602 3738 l3 -1073 575 0 c562 0 577 1 680 23 209 46 310 95 431
210 130 122 219 285 261 477 29 133 36 452 14 603 -72 488 -322 759 -761 822
-40 5 -312 10 -638 10 l-567 0 2 -1072z m996 567 c120 -28 205 -90 251 -182
39 -78 52 -160 58 -353 8 -267 -18 -401 -97 -500 -67 -85 -141 -108 -377 -117
l-163 -6 0 586 0 587 133 0 c81 0 156 -6 195 -15z"/>
<path d="M5580 4565 l0 -245 2978 2 2977 3 3 243 2 242 -2980 0 -2980 0 0
-245z"/>
<path d="M5580 2250 l0 -1080 333 2 332 3 3 265 3 265 168 174 168 175 118
-230 c64 -126 167 -325 227 -441 l109 -213 405 0 c280 0 404 3 404 11 0 6
-180 304 -399 662 -220 359 -401 657 -403 663 -2 5 170 189 382 408 212 219
387 402 388 407 2 5 -177 9 -435 9 l-439 0 -344 -402 -345 -402 -5 399 -5 400
-332 3 -333 2 0 -1080z"/>
<path d="M8045 3318 c-3 -7 -4 -492 -3 -1078 l3 -1065 333 -3 332 -2 0 1080 0
1080 -330 0 c-255 0 -332 -3 -335 -12z"/>
<path d="M9115 3318 c-3 -7 -4 -492 -3 -1078 l3 -1065 273 -3 272 -2 1 807 c0
445 3 801 6 793 4 -8 97 -370 208 -805 l202 -790 248 0 248 0 202 790 c111
435 204 797 207 805 4 8 7 -348 7 -793 l1 -807 273 2 272 3 0 1075 0 1075
-437 3 -437 2 -10 -37 c-5 -21 -80 -312 -165 -647 -86 -335 -157 -611 -159
-612 -1 -2 -74 275 -161 614 -88 339 -163 632 -168 650 l-9 32 -435 0 c-338 0
-436 -3 -439 -12z"/>
<path d="M484 1657 c-2 -7 -3 -118 -2 -247 l3 -235 2048 -3 2047 -2 0 250 0
250 -2045 0 c-1645 0 -2047 -2 -2051 -13z"/>
</g>
</svg>
